<svg width="108" height="108" viewBox="0 0 108 108" fill="none" xmlns="http://www.w3.org/2000/svg">
<path d="M54 0C83.8234 0 108 24.1766 108 54C108 83.8232 83.8233 108 54 108C53.9047 108 53.8091 108 53.7139 107.999C51.6183 107.988 50.0001 106.231 50 104.136V80.5371C50.0003 78.4897 51.9525 77 54 77C56.0475 77 57.9997 78.4897 58 80.5371V95.4658C58.0001 97.8102 60.0131 99.6672 62.3193 99.2461C83.7528 95.3309 99.9999 76.5642 100 54C100 31.4357 83.7529 12.6682 62.3193 8.75293C60.013 8.3318 58 10.1887 58 12.5332V41.4619C57.9998 43.5094 56.0475 45 54 45C51.9525 45 50.0002 43.5094 50 41.4619V3.86328C50 1.76762 51.6183 0.0119876 53.7139 0.000976562C53.809 0.000487155 53.9047 0 54 0ZM37.1729 2.67383C39.6114 1.87507 41.9997 3.78165 42 6.34766V6.51953C41.9998 8.32763 40.7787 9.89384 39.0684 10.4805C20.9929 16.6804 8.00001 33.8218 8 54C8.00012 74.178 20.993 91.3186 39.0684 97.5186C40.7788 98.1052 42 99.6713 42 101.479V101.65C42 104.217 39.6116 106.123 37.1729 105.324C15.5894 98.2525 0.00012482 77.9476 0 54C5.61198e-06 30.0522 15.5892 9.74565 37.1729 2.67383ZM77.3809 32.1709C78.9428 30.6095 81.4752 30.6095 83.0371 32.1709C84.5992 33.733 84.5991 36.266 83.0371 37.8281L61.7646 59.0996C61.9172 59.7167 62 60.3622 62 61.0264C61.9998 65.4444 58.4181 69.0264 54 69.0264C49.582 69.0262 46.0002 65.4443 46 61.0264C46 60.9262 46.0032 60.8258 46.0068 60.7266L33.9355 53.4521L33.7617 53.3408C32.0073 52.158 31.4696 49.7937 32.5742 47.9609C33.6789 46.1284 36.0205 45.4993 37.8857 46.498L38.0654 46.5996L50.2637 53.9512C51.3789 53.3609 52.6503 53.0264 54 53.0264C54.7677 53.0264 55.5101 53.136 56.2129 53.3379L77.3809 32.1709Z" fill="#06B6D4"/>
</svg>
